<?xml version="1.0" standalone="no"?>
<!DOCTYPE svg PUBLIC "-//W3C//DTD SVG 20010904//EN"
 "http://www.w3.org/TR/2001/REC-SVG-20010904/DTD/svg10.dtd">
<svg version="1.0" xmlns="http://www.w3.org/2000/svg"
 width="621.000000pt" height="621.000000pt" viewBox="0 0 621.000000 621.000000"
 preserveAspectRatio="xMidYMid meet">
<metadata>
Created by potrace 1.11, written by Peter Selinger 2001-2013
</metadata>
<g transform="translate(0.000000,621.000000) scale(0.100000,-0.100000)"
fill="#000000" stroke="none">
<path d="M1223 3147 l-981 -2432 476 -3 c261 -1 477 0 480 2 5 5 1946 4812
1957 4846 6 20 2 20 -472 20 l-478 0 -982 -2433z"/>
<path d="M3286 4368 c-102 -255 -323 -803 -490 -1218 l-304 -755 190 -3 c175
-2 190 -4 185 -20 -2 -9 -152 -381 -332 -827 -180 -445 -329 -816 -332 -822
-4 -10 95 -13 474 -13 l480 0 489 1212 490 1213 -189 3 -189 2 4 23 c3 12 150
382 328 822 177 440 326 810 331 823 l9 22 -479 0 -479 0 -186 -462z"/>
<path d="M5350 4494 c-180 -48 -322 -194 -365 -375 -68 -292 116 -578 405
-630 293 -52 580 196 580 503 0 332 -311 584 -620 502z"/>
<path d="M4805 3048 c-9 -24 -226 -563 -482 -1198 -256 -635 -469 -1165 -474
-1177 l-9 -23 479 0 478 0 486 1208 c268 665 487 1214 487 1220 0 9 -119 12
-474 12 l-474 0 -17 -42z"/>
</g>
</svg>
