<?xml version="1.0" standalone="no"?>
<!DOCTYPE svg PUBLIC "-//W3C//DTD SVG 20010904//EN"
 "http://www.w3.org/TR/2001/REC-SVG-20010904/DTD/svg10.dtd">
<svg version="1.0" xmlns="http://www.w3.org/2000/svg"
 width="512.000000pt" height="512.000000pt" viewBox="0 0 512.000000 512.000000"
 preserveAspectRatio="xMidYMid meet">
<metadata>
Created by potrace 1.11, written by Peter Selinger 2001-2013
</metadata>
<g transform="translate(0.000000,512.000000) scale(0.100000,-0.100000)"
fill="#000000" stroke="none">
<path d="M2300 3560 c-167 -35 -278 -95 -385 -205 -141 -144 -204 -332 -192
-565 6 -112 23 -190 59 -267 44 -95 132 -196 226 -258 106 -70 306 -102 447
-72 39 8 71 14 71 13 2 -1 -15 -26 -272 -409 -107 -158 -194 -290 -194 -292 0
-3 128 -5 285 -5 l286 0 173 263 c286 435 379 605 436 799 36 124 47 222 39
343 -24 334 -211 563 -529 646 -118 31 -329 35 -450 9z m311 -406 c88 -26 140
-71 181 -154 31 -63 32 -225 3 -285 -57 -117 -161 -177 -295 -170 -131 6 -206
52 -259 157 -30 61 -34 76 -33 150 0 91 17 151 58 205 72 95 216 135 345 97z"/>
<path d="M10 2528 l0 -1028 278 0 277 0 0 455 c0 250 1 455 2 455 1 0 149
-203 328 -451 180 -248 333 -453 339 -455 6 -2 165 -3 354 -2 l342 3 -410 523
c-245 313 -407 528 -403 535 4 7 120 161 257 342 428 563 486 641 486 646 0 3
-147 5 -326 4 l-326 0 -275 -395 c-152 -217 -295 -424 -319 -459 -24 -35 -45
-62 -45 -60 -1 2 -2 209 -3 459 l-1 455 -278 1 -277 0 0 -1028z"/>
<path d="M3306 3530 c-2 -5 1 -422 3 -446 1 -9 115 -12 426 -11 234 0 427 -2
429 -4 2 -2 -43 -98 -100 -214 -57 -115 -167 -340 -246 -500 -78 -159 -193
-393 -255 -520 -63 -126 -125 -254 -138 -282 l-24 -53 292 0 292 1 65 142 c35
78 89 194 118 257 30 63 87 187 127 275 40 88 92 201 115 250 23 50 83 178
132 285 49 107 100 218 113 245 197 422 223 484 221 532 l-1 48 -783 0 c-431
0 -785 -2 -786 -5z"/>
<path d="M5060 3158 c-58 -113 -162 -312 -225 -433 -29 -55 -85 -163 -125
-240 -40 -77 -98 -189 -130 -250 -32 -60 -85 -163 -119 -227 -92 -177 -179
-344 -222 -426 -22 -40 -39 -74 -39 -75 0 -2 851 0 895 2 20 1 20 4 17 863 -2
474 -4 864 -6 865 -2 2 -22 -34 -46 -79z"/>
</g>
</svg>
